<?xml version="1.0" standalone="no"?>
<!DOCTYPE svg PUBLIC "-//W3C//DTD SVG 20010904//EN"
 "http://www.w3.org/TR/2001/REC-SVG-20010904/DTD/svg10.dtd">
<svg version="1.0" xmlns="http://www.w3.org/2000/svg"
 width="832.000000pt" height="832.000000pt" viewBox="0 0 832.000000 832.000000"
 preserveAspectRatio="xMidYMid meet">

<g transform="translate(0.000000,832.000000) scale(0.100000,-0.100000)"
fill="#000000" stroke="none">
<path d="M1490 6331 c0 -2 36 -52 79 -110 44 -58 115 -158 159 -221 101 -145
117 -167 173 -243 25 -34 104 -141 174 -237 70 -96 172 -233 225 -305 53 -71
164 -222 245 -335 136 -187 295 -404 431 -585 29 -38 67 -91 86 -117 18 -26
61 -84 96 -128 l62 -82 0 -1020 0 -1019 393 3 c476 5 590 0 614 -26 13 -13 15
-20 6 -23 -24 -9 -13 -23 12 -17 40 10 92 -4 98 -26 3 -13 14 -20 29 -20 13 0
29 -5 36 -12 15 -15 32 0 35 31 1 13 8 21 20 21 12 0 16 -4 11 -12 -6 -10 -4
-10 7 -1 18 18 29 16 29 -4 1 -17 2 -17 15 1 13 17 14 15 25 -23 10 -39 13
-41 48 -41 42 0 64 11 60 30 -4 17 48 31 77 20 13 -5 26 -18 29 -28 5 -16 15
-19 53 -17 37 1 48 6 54 23 7 18 16 22 48 22 22 0 42 5 44 12 3 7 6 4 6 -7 2
-27 12 -41 38 -49 16 -5 23 -2 26 11 4 17 5 17 6 0 1 -26 23 -16 39 17 9 17
19 25 28 22 8 -3 14 0 14 7 0 7 7 4 15 -7 13 -18 41 -14 30 5 -4 5 -2 9 4 9 6
0 14 -15 19 -32 8 -31 12 -33 55 -36 44 -3 47 -1 53 25 11 54 13 56 29 43 11
-10 18 -9 31 4 8 9 21 13 27 9 8 -5 6 -9 -5 -11 -10 -2 -18 -7 -18 -12 0 -5 6
-7 14 -4 10 4 16 -3 18 -23 2 -20 9 -29 26 -31 15 -2 22 2 22 12 0 9 7 16 15
16 12 0 14 7 9 27 -9 38 -13 43 -31 43 -12 0 -11 5 7 20 13 11 28 20 35 20 8
0 10 9 7 25 -2 14 0 25 6 25 5 0 12 -13 15 -30 4 -20 12 -30 24 -30 15 0 16 2
3 10 -13 9 -11 13 10 29 l25 20 -28 10 c-26 10 -28 14 -25 58 3 41 6 48 28 53
22 5 25 11 25 48 0 36 -4 45 -25 55 -20 10 -25 20 -26 54 0 40 1 42 35 48 23
4 30 9 21 15 -10 6 -8 9 6 13 16 4 16 5 2 6 -13 1 -17 8 -14 31 3 25 -1 31
-20 36 -27 7 -30 30 -9 58 11 14 12 23 4 33 -9 10 -8 13 2 13 10 1 9 4 -3 14
-13 10 -18 27 -18 65 0 44 3 51 20 51 12 0 17 5 14 14 -3 8 -1 17 5 21 16 9
14 19 -14 49 -31 34 -44 113 -18 118 23 4 23 86 0 103 -19 14 -25 105 -7 105
6 0 19 9 30 20 25 25 26 60 3 60 -13 0 -15 2 -5 8 9 6 6 12 -12 20 -19 9 -23
17 -21 44 2 18 4 36 4 40 1 3 13 10 29 16 21 7 28 16 30 41 1 18 3 37 5 44 1
6 -9 13 -22 15 -22 3 -23 7 -18 47 5 30 3 45 -6 48 -7 3 -1 6 13 6 36 2 52 15
44 36 -5 12 -4 16 3 12 8 -5 10 4 9 25 -4 48 -5 48 -21 48 -17 0 -20 16 -5 25
6 4 8 15 5 26 -4 13 -2 19 9 19 10 0 14 -10 14 -30 -1 -30 7 -48 18 -38 8 8 8
35 -1 114 l-7 72 36 12 c42 14 46 18 52 69 4 32 1 40 -13 44 -10 3 1 3 25 0
36 -5 41 -3 36 11 -4 11 -1 16 10 16 18 0 19 11 10 60 -5 23 -9 28 -16 18 -7
-9 -8 -8 -4 5 3 10 6 23 6 28 0 6 4 8 9 5 5 -4 12 7 16 24 7 34 22 39 33 12 7
-18 8 -18 26 0 18 16 18 18 2 18 -14 0 -17 8 -14 48 3 47 3 47 45 56 41 9 42
9 45 55 l3 46 48 3 c47 3 53 9 48 48 -1 7 3 24 9 38 8 21 16 26 44 26 37 0 46
12 46 61 0 19 6 31 18 35 9 3 25 10 35 15 10 5 22 7 27 4 11 -7 16 2 24 48 6
33 5 37 -14 37 -24 0 -25 8 -6 45 l15 28 3 -34 c3 -29 7 -34 31 -37 19 -2 33
3 41 14 8 10 18 14 25 10 8 -5 12 -3 10 5 -5 40 3 60 27 69 14 6 31 23 37 40
6 17 17 30 24 30 32 0 9 20 -29 27 -24 3 -36 8 -28 11 8 2 25 14 38 26 20 17
24 18 32 6 5 -8 10 -21 10 -27 0 -24 18 -13 29 18 6 17 14 28 19 25 4 -2 13 4
20 14 11 17 8 20 -21 28 -37 10 -39 26 -2 30 14 2 25 7 25 12 0 5 -7 7 -15 4
-18 -7 -19 0 -3 29 11 21 11 21 19 2 6 -17 8 -17 8 -2 1 9 8 17 16 17 11 0 15
-11 15 -41 0 -37 1 -39 16 -25 8 9 20 16 26 16 6 0 8 9 5 20 -3 11 -1 20 5 20
5 0 6 5 3 10 -3 6 -14 10 -25 10 -10 0 -21 7 -24 16 -9 23 -7 31 3 15 8 -12
12 -12 26 2 15 16 15 17 -7 18 l-23 0 25 10 c20 8 22 12 10 19 -11 7 -3 10 25
10 38 0 42 3 54 35 7 19 16 35 21 35 5 0 12 9 15 20 9 29 55 28 55 -1 0 -17 3
-19 13 -10 8 6 17 8 20 4 4 -3 7 3 7 15 0 15 -5 20 -15 16 -11 -5 -15 1 -15
24 0 37 9 62 22 62 5 0 6 -6 3 -12 -4 -7 0 -5 8 5 8 9 21 15 30 11 8 -3 18 0
22 5 3 6 11 8 17 5 7 -4 8 4 3 25 -11 50 1 69 48 78 31 6 42 14 44 28 1 16 1
16 -3 3 -3 -10 -9 -18 -14 -18 -17 0 -19 17 -5 43 12 24 12 28 -5 37 -10 5
-28 10 -39 10 -16 0 -21 6 -21 28 0 31 -16 53 -34 46 -7 -3 -26 2 -42 11 -16
8 -23 15 -16 15 6 0 12 5 12 10 0 6 -9 10 -19 10 -11 0 -23 -4 -26 -10 -3 -5
-1 -10 5 -10 6 0 4 -7 -5 -17 -14 -14 -18 -14 -27 -2 -7 11 -11 11 -15 2 -7
-20 -29 -15 -39 8 -8 17 -21 21 -73 24 -49 3 -62 1 -58 -9 8 -20 -7 -36 -39
-40 -68 -8 -68 2 9 115 40 58 105 151 144 205 119 163 303 423 303 429 0 3
-343 4 -762 2 -689 -3 -769 -5 -820 -20 -309 -94 -438 -200 -682 -562 -82
-121 -190 -276 -241 -345 -50 -69 -126 -174 -168 -233 l-76 -108 -50 73 c-27
40 -63 91 -79 113 -16 22 -56 81 -91 130 -34 50 -87 126 -119 171 -31 45 -109
155 -172 245 -183 262 -335 401 -513 469 -179 70 -164 69 -970 72 -400 2 -727
1 -727 -1z m1481 -367 c85 -20 196 -82 261 -147 30 -28 114 -137 189 -242 424
-595 787 -1095 794 -1095 4 0 262 353 364 498 30 42 153 217 274 387 121 171
240 338 263 371 56 80 123 138 207 180 124 63 142 65 570 68 213 2 390 0 392
-4 2 -3 -38 -62 -89 -131 -51 -68 -181 -245 -290 -394 -426 -586 -574 -786
-805 -1093 -97 -128 -191 -254 -209 -280 -18 -25 -64 -82 -100 -127 -37 -44
-101 -123 -142 -175 -41 -52 -77 -97 -80 -100 -3 -3 -21 -25 -40 -50 -19 -25
-111 -142 -205 -260 -94 -118 -202 -255 -239 -303 -37 -49 -74 -96 -81 -105
-46 -56 -334 -425 -370 -473 -23 -32 -45 -55 -49 -52 -3 4 -6 366 -6 806 l0
799 -53 72 c-30 39 -185 251 -344 471 -283 389 -487 668 -840 1148 -95 130
-173 239 -173 244 0 5 157 7 368 6 283 -3 382 -7 433 -19z m3355 -1259 c-8 -9
-24 -10 -52 -5 -21 4 -31 8 -22 9 29 2 68 23 62 35 -3 6 1 3 10 -8 12 -15 12
-21 2 -31z m-150 -75 c0 -11 -6 -22 -14 -25 -7 -2 -11 -1 -9 3 2 4 7 15 10 25
8 22 13 22 13 -3z m-716 -2694 c0 -3 -4 -8 -10 -11 -5 -3 -10 -1 -10 4 0 6 5
11 10 11 6 0 10 -2 10 -4z m-1062 -37 l37 -1 -32 -10 c-40 -13 -65 -5 -56 19
4 10 8 12 11 5 2 -7 20 -12 40 -13z"/>
<path d="M6552 5670 c0 -14 2 -19 5 -12 2 6 2 18 0 25 -3 6 -5 1 -5 -13z"/>
<path d="M6510 5609 c0 -5 5 -7 10 -4 6 3 10 8 10 11 0 2 -4 4 -10 4 -5 0 -10
-5 -10 -11z"/>
<path d="M6971 5534 c0 -11 3 -14 6 -6 3 7 2 16 -1 19 -3 4 -6 -2 -5 -13z"/>
<path d="M6673 5093 c-7 -2 -13 -11 -13 -20 0 -20 34 -12 38 10 3 17 -3 20
-25 10z"/>
<path d="M5480 1864 c0 -8 5 -12 10 -9 6 3 10 10 10 16 0 5 -4 9 -10 9 -5 0
-10 -7 -10 -16z"/>
<path d="M4913 1763 c9 -2 25 -2 35 0 9 3 1 5 -18 5 -19 0 -27 -2 -17 -5z"/>
</g>
</svg>
